<?xml version="1.0" encoding="UTF-8" standalone="no"?>
<!DOCTYPE svg PUBLIC "-//W3C//DTD SVG 1.0//EN"
 "http://www.w3.org/TR/2001/REC-SVG-20010904/DTD/svg10.dtd" [
 <!ATTLIST svg xmlns:xlink CDATA #FIXED "http://www.w3.org/1999/xlink">
]>
<!-- Generated by Graphviz version 2.16.1 (Thu Jan 17 17:16:42 GMT 2008)
     For user: martyn -->
<!-- Title: draw_state_machine Pages: 1 -->
<svg width="299pt" height="938pt"
 viewBox="0.00 0.00 299.00 938.00" xmlns="http://www.w3.org/2000/svg" xmlns:xlink="http://www.w3.org/1999/xlink">
<g id="graph0" class="graph" transform="scale(1 1) rotate(0) translate(4 934)">
<title>draw_state_machine</title>
<polygon style="fill:white;stroke:white;" points="-4,4 -4,-934 295,-934 295,4 -4,4"/>
<text text-anchor="middle" x="145" y="-7.275" style="font-family:Times New Roman;font-size:14.00;">Main State Machine</text>
<!-- init_state -->
<g id="node1" class="node"><title>init_state</title>
<ellipse style="fill:lightblue;stroke:black;" cx="158" cy="-891" rx="38.9222" ry="38.9222"/>
<text text-anchor="middle" x="158" y="-895.35" style="font-family:verdana;font-size:16.00;fill:#000080;">init</text>
<text text-anchor="middle" x="158" y="-876.6" style="font-family:verdana;font-size:16.00;fill:#000080;">state</text>
</g>
<!-- listen_for_dev_state -->
<g id="node3" class="node"><title>listen_for_dev_state</title>
<ellipse style="fill:lightblue;stroke:black;" cx="58" cy="-682" rx="58.1882" ry="58.1882"/>
<text text-anchor="middle" x="58" y="-705.1" style="font-family:verdana;font-size:16.00;fill:#000080;">listen</text>
<text text-anchor="middle" x="58" y="-686.35" style="font-family:verdana;font-size:16.00;fill:#000080;">for</text>
<text text-anchor="middle" x="58" y="-667.6" style="font-family:verdana;font-size:16.00;fill:#000080;">dev</text>
<text text-anchor="middle" x="58" y="-648.85" style="font-family:verdana;font-size:16.00;fill:#000080;">state</text>
</g>
<!-- init_state&#45;&gt;listen_for_dev_state -->
<g id="edge2" class="edge"><title>init_state&#45;&gt;listen_for_dev_state</title>
<path style="fill:none;stroke:green;" d="M120,-881C97,-872 69,-858 55,-834 40,-808 39,-777 42,-748"/>
<polygon style="fill:green;stroke:green;" points="45.4875,-748.299 43,-738 38.5222,-747.602 45.4875,-748.299"/>
<text text-anchor="middle" x="98" y="-790.975" style="font-family:verdana;font-size:16.00;fill:darkgreen;">initialised!</text>
</g>
<!-- listen_for_dev_state&#45;&gt;init_state -->
<g id="edge8" class="edge"><title>listen_for_dev_state&#45;&gt;init_state</title>
<path style="fill:none;stroke:green;" d="M104,-718C116,-729 128,-743 136,-758 149,-784 155,-815 157,-842"/>
<polygon style="fill:green;stroke:green;" points="153.522,-842.398 158,-852 160.488,-841.701 153.522,-842.398"/>
<text text-anchor="middle" x="188" y="-819.1" style="font-family:verdana;font-size:16.00;fill:darkgreen;">listen</text>
<text text-anchor="middle" x="188" y="-800.35" style="font-family:verdana;font-size:16.00;fill:darkgreen;">for</text>
<text text-anchor="middle" x="188" y="-781.6" style="font-family:verdana;font-size:16.00;fill:darkgreen;">dev</text>
<text text-anchor="middle" x="188" y="-762.85" style="font-family:verdana;font-size:16.00;fill:darkgreen;">timeout!</text>
</g>
<!-- listen_for_dev_state&#45;&gt;listen_for_dev_state -->
<g id="edge4" class="edge"><title>listen_for_dev_state&#45;&gt;listen_for_dev_state</title>
<path style="fill:none;stroke:green;" d="M113,-701C125,-699 134,-693 134,-682 134,-674 130,-669 123,-666"/>
<polygon style="fill:green;stroke:green;" points="123.584,-662.521 113,-663 121.573,-669.226 123.584,-662.521"/>
<text text-anchor="middle" x="169" y="-686.35" style="font-family:verdana;font-size:16.00;fill:darkgreen;">dev</text>
<text text-anchor="middle" x="169" y="-667.6" style="font-family:verdana;font-size:16.00;fill:darkgreen;">unheard!</text>
</g>
<!-- contact_dev_state -->
<g id="node6" class="node"><title>contact_dev_state</title>
<ellipse style="fill:lightblue;stroke:black;" cx="58" cy="-480" rx="52.1491" ry="52.1491"/>
<text text-anchor="middle" x="58" y="-493.725" style="font-family:verdana;font-size:16.00;fill:#000080;">contact</text>
<text text-anchor="middle" x="58" y="-474.975" style="font-family:verdana;font-size:16.00;fill:#000080;">dev</text>
<text text-anchor="middle" x="58" y="-456.225" style="font-family:verdana;font-size:16.00;fill:#000080;">state</text>
</g>
<!-- listen_for_dev_state&#45;&gt;contact_dev_state -->
<g id="edge6" class="edge"><title>listen_for_dev_state&#45;&gt;contact_dev_state</title>
<path style="fill:none;stroke:green;" d="M57,-624C56,-618 56,-612 56,-606 56,-581 56,-574 56,-550 56,-547 56,-545 56,-542"/>
<polygon style="fill:green;stroke:green;" points="59.4875,-542.299 57,-532 52.5222,-541.602 59.4875,-542.299"/>
<text text-anchor="middle" x="83" y="-582.35" style="font-family:verdana;font-size:16.00;fill:darkgreen;">dev</text>
<text text-anchor="middle" x="83" y="-563.6" style="font-family:verdana;font-size:16.00;fill:darkgreen;">heard!</text>
</g>
<!-- contact_dev_state&#45;&gt;listen_for_dev_state -->
<g id="edge14" class="edge"><title>contact_dev_state&#45;&gt;listen_for_dev_state</title>
<path style="fill:none;stroke:green;" d="M92,-520C98,-529 104,-539 107,-550 114,-573 114,-582 107,-606 105,-613 102,-620 98,-627"/>
<polygon style="fill:green;stroke:green;" points="94.7969,-625.559 93,-636 100.916,-628.958 94.7969,-625.559"/>
<text text-anchor="middle" x="145" y="-591.725" style="font-family:verdana;font-size:16.00;fill:darkgreen;">dev</text>
<text text-anchor="middle" x="145" y="-572.975" style="font-family:verdana;font-size:16.00;fill:darkgreen;">contact</text>
<text text-anchor="middle" x="145" y="-554.225" style="font-family:verdana;font-size:16.00;fill:darkgreen;">timeout!</text>
</g>
<!-- contact_dev_state&#45;&gt;contact_dev_state -->
<g id="edge10" class="edge"><title>contact_dev_state&#45;&gt;contact_dev_state</title>
<path style="fill:none;stroke:green;" d="M108,-496C119,-495 128,-489 128,-480 128,-474 124,-469 118,-467"/>
<polygon style="fill:green;stroke:green;" points="118.584,-463.521 108,-464 116.573,-470.226 118.584,-463.521"/>
<text text-anchor="middle" x="169" y="-493.725" style="font-family:verdana;font-size:16.00;fill:darkgreen;">dev</text>
<text text-anchor="middle" x="169" y="-474.975" style="font-family:verdana;font-size:16.00;fill:darkgreen;">not</text>
<text text-anchor="middle" x="169" y="-456.225" style="font-family:verdana;font-size:16.00;fill:darkgreen;">contacted!</text>
</g>
<!-- await_tick_state -->
<g id="node10" class="node"><title>await_tick_state</title>
<ellipse style="fill:lightblue;stroke:black;" cx="169" cy="-309" rx="44.9324" ry="44.9324"/>
<text text-anchor="middle" x="169" y="-322.725" style="font-family:verdana;font-size:16.00;fill:#000080;">await</text>
<text text-anchor="middle" x="169" y="-303.975" style="font-family:verdana;font-size:16.00;fill:#000080;">tick</text>
<text text-anchor="middle" x="169" y="-285.225" style="font-family:verdana;font-size:16.00;fill:#000080;">state</text>
</g>
<!-- contact_dev_state&#45;&gt;await_tick_state -->
<g id="edge12" class="edge"><title>contact_dev_state&#45;&gt;await_tick_state</title>
<path style="fill:none;stroke:green;" d="M87,-436C102,-411 122,-380 138,-356"/>
<polygon style="fill:green;stroke:green;" points="141.365,-357.262 144,-347 135.541,-353.379 141.365,-357.262"/>
<text text-anchor="middle" x="167" y="-395.35" style="font-family:verdana;font-size:16.00;fill:darkgreen;">dev</text>
<text text-anchor="middle" x="167" y="-376.6" style="font-family:verdana;font-size:16.00;fill:darkgreen;">contacted!</text>
</g>
<!-- await_tick_state&#45;&gt;init_state -->
<g id="edge18" class="edge"><title>await_tick_state&#45;&gt;init_state</title>
<path style="fill:none;stroke:green;" d="M197,-344C203,-353 209,-362 213,-372 222,-395 218,-402 220,-428 230,-574 223,-611 225,-758 225,-791 239,-803 225,-834 219,-846 210,-856 200,-865"/>
<polygon style="fill:green;stroke:green;" points="197.9,-862.2 192,-871 202.1,-867.8 197.9,-862.2"/>
<text text-anchor="middle" x="258" y="-591.725" style="font-family:verdana;font-size:16.00;fill:darkgreen;">await</text>
<text text-anchor="middle" x="258" y="-572.975" style="font-family:verdana;font-size:16.00;fill:darkgreen;">tick</text>
<text text-anchor="middle" x="258" y="-554.225" style="font-family:verdana;font-size:16.00;fill:darkgreen;">timeout!</text>
</g>
<!-- send_tick_ack_state -->
<g id="node13" class="node"><title>send_tick_ack_state</title>
<ellipse style="fill:lightblue;stroke:black;" cx="169" cy="-114" rx="58.1882" ry="58.1882"/>
<text text-anchor="middle" x="169" y="-137.1" style="font-family:verdana;font-size:16.00;fill:#000080;">send</text>
<text text-anchor="middle" x="169" y="-118.35" style="font-family:verdana;font-size:16.00;fill:#000080;">tick</text>
<text text-anchor="middle" x="169" y="-99.6" style="font-family:verdana;font-size:16.00;fill:#000080;">ack</text>
<text text-anchor="middle" x="169" y="-80.85" style="font-family:verdana;font-size:16.00;fill:#000080;">state</text>
</g>
<!-- await_tick_state&#45;&gt;send_tick_ack_state -->
<g id="edge16" class="edge"><title>await_tick_state&#45;&gt;send_tick_ack_state</title>
<path style="fill:none;stroke:green;" d="M138,-276C132,-267 126,-257 122,-246 114,-222 115,-213 122,-190 124,-183 126,-177 129,-170"/>
<polygon style="fill:green;stroke:green;" points="132.203,-171.441 134,-161 126.084,-168.042 132.203,-171.441"/>
<text text-anchor="middle" x="158" y="-222.35" style="font-family:verdana;font-size:16.00;fill:darkgreen;">tick</text>
<text text-anchor="middle" x="158" y="-203.6" style="font-family:verdana;font-size:16.00;fill:darkgreen;">received!</text>
</g>
<!-- send_tick_ack_state&#45;&gt;await_tick_state -->
<g id="edge20" class="edge"><title>send_tick_ack_state&#45;&gt;await_tick_state</title>
<path style="fill:none;stroke:green;" d="M190,-168C192,-175 194,-183 195,-190 199,-214 199,-221 195,-246 194,-250 193,-254 192,-258"/>
<polygon style="fill:green;stroke:green;" points="188.464,-257.415 188,-268 194.964,-260.015 188.464,-257.415"/>
<text text-anchor="middle" x="217" y="-231.725" style="font-family:verdana;font-size:16.00;fill:darkgreen;">tick</text>
<text text-anchor="middle" x="217" y="-212.975" style="font-family:verdana;font-size:16.00;fill:darkgreen;">ack</text>
<text text-anchor="middle" x="217" y="-194.225" style="font-family:verdana;font-size:16.00;fill:darkgreen;">sent!</text>
</g>
</g>
</svg>
