<?xml version="1.0" encoding="UTF-8" standalone="no"?>
<!DOCTYPE svg PUBLIC "-//W3C//DTD SVG 1.0//EN"
 "http://www.w3.org/TR/2001/REC-SVG-20010904/DTD/svg10.dtd" [
 <!ATTLIST svg xmlns:xlink CDATA #FIXED "http://www.w3.org/1999/xlink">
]>
<!-- Generated by Graphviz version 2.16.1 (Thu Jan 17 17:16:42 GMT 2008)
     For user: martyn -->
<!-- Title: draw_state_machine Pages: 1 -->
<svg width="465pt" height="924pt"
 viewBox="0.00 0.00 465.00 924.00" xmlns="http://www.w3.org/2000/svg" xmlns:xlink="http://www.w3.org/1999/xlink">
<g id="graph0" class="graph" transform="scale(1 1) rotate(0) translate(4 920)">
<title>draw_state_machine</title>
<polygon style="fill:white;stroke:white;" points="-4,4 -4,-920 461,-920 461,4 -4,4"/>
<text text-anchor="middle" x="228" y="-7.275" style="font-family:Times New Roman;font-size:14.00;">Main State Machine</text>
<!-- init_state -->
<g id="node1" class="node"><title>init_state</title>
<polygon style="fill:lightblue;stroke:black;" points="208.875,-915.75 153.125,-915.75 153.125,-870.25 208.875,-870.25 208.875,-915.75"/>
<text text-anchor="middle" x="181" y="-897.35" style="font-family:verdana;font-size:16.00;fill:#000080;">init</text>
<text text-anchor="middle" x="181" y="-878.6" style="font-family:verdana;font-size:16.00;fill:#000080;">state</text>
</g>
<!-- contact_tester_state -->
<g id="node3" class="node"><title>contact_tester_state</title>
<polygon style="fill:lightblue;stroke:black;" points="217.875,-778.125 144.125,-778.125 144.125,-713.875 217.875,-713.875 217.875,-778.125"/>
<text text-anchor="middle" x="181" y="-759.725" style="font-family:verdana;font-size:16.00;fill:#000080;">contact</text>
<text text-anchor="middle" x="181" y="-740.975" style="font-family:verdana;font-size:16.00;fill:#000080;">tester</text>
<text text-anchor="middle" x="181" y="-722.225" style="font-family:verdana;font-size:16.00;fill:#000080;">state</text>
</g>
<!-- init_state&#45;&gt;contact_tester_state -->
<g id="edge2" class="edge"><title>init_state&#45;&gt;contact_tester_state</title>
<path style="fill:none;stroke:darkgreen;" d="M153,-877C144,-871 135,-862 130,-852 120,-829 121,-818 130,-796 132,-791 134,-787 137,-783"/>
<polygon style="fill:darkgreen;stroke:darkgreen;" points="140.049,-784.831 144,-775 134.781,-780.221 140.049,-784.831"/>
<text text-anchor="middle" x="174" y="-818.975" style="font-family:verdana;font-size:16.00;fill:darkgreen;">initialised!</text>
</g>
<!-- contact_tester_state&#45;&gt;init_state -->
<g id="edge8" class="edge"><title>contact_tester_state&#45;&gt;init_state</title>
<path style="fill:none;stroke:darkgreen;" d="M204,-778C207,-784 209,-790 211,-796 217,-819 218,-828 211,-852 210,-855 208,-858 206,-862"/>
<polygon style="fill:darkgreen;stroke:darkgreen;" points="203.332,-859.665 201,-870 209.268,-863.375 203.332,-859.665"/>
<text text-anchor="middle" x="248" y="-837.725" style="font-family:verdana;font-size:16.00;fill:darkgreen;">contact</text>
<text text-anchor="middle" x="248" y="-818.975" style="font-family:verdana;font-size:16.00;fill:darkgreen;">tester</text>
<text text-anchor="middle" x="248" y="-800.225" style="font-family:verdana;font-size:16.00;fill:darkgreen;">timeout!</text>
</g>
<!-- contact_tester_state&#45;&gt;contact_tester_state -->
<g id="edge4" class="edge"><title>contact_tester_state&#45;&gt;contact_tester_state</title>
<path style="fill:none;stroke:darkgreen;" d="M218,-760C228,-759 236,-755 236,-746 236,-740 233,-737 228,-734"/>
<polygon style="fill:darkgreen;stroke:darkgreen;" points="228.492,-730.529 218,-732 227.119,-737.393 228.492,-730.529"/>
<text text-anchor="middle" x="277" y="-759.725" style="font-family:verdana;font-size:16.00;fill:darkgreen;">tester</text>
<text text-anchor="middle" x="277" y="-740.975" style="font-family:verdana;font-size:16.00;fill:darkgreen;">not</text>
<text text-anchor="middle" x="277" y="-722.225" style="font-family:verdana;font-size:16.00;fill:darkgreen;">contacted!</text>
</g>
<!-- listen_for_tester_state -->
<g id="node6" class="node"><title>listen_for_tester_state</title>
<polygon style="fill:lightblue;stroke:black;" points="211.754,-621.5 150.246,-621.5 150.246,-538.5 211.754,-538.5 211.754,-621.5"/>
<text text-anchor="middle" x="181" y="-603.1" style="font-family:verdana;font-size:16.00;fill:#000080;">listen</text>
<text text-anchor="middle" x="181" y="-584.35" style="font-family:verdana;font-size:16.00;fill:#000080;">for</text>
<text text-anchor="middle" x="181" y="-565.6" style="font-family:verdana;font-size:16.00;fill:#000080;">tester</text>
<text text-anchor="middle" x="181" y="-546.85" style="font-family:verdana;font-size:16.00;fill:#000080;">state</text>
</g>
<!-- contact_tester_state&#45;&gt;listen_for_tester_state -->
<g id="edge6" class="edge"><title>contact_tester_state&#45;&gt;listen_for_tester_state</title>
<path style="fill:none;stroke:darkgreen;" d="M144,-717C138,-711 133,-704 129,-696 120,-673 121,-663 129,-640 133,-631 138,-623 144,-615"/>
<polygon style="fill:darkgreen;stroke:darkgreen;" points="146.8,-617.1 150,-607 141.2,-612.9 146.8,-617.1"/>
<text text-anchor="middle" x="174" y="-672.35" style="font-family:verdana;font-size:16.00;fill:darkgreen;">tester</text>
<text text-anchor="middle" x="174" y="-653.6" style="font-family:verdana;font-size:16.00;fill:darkgreen;">contacted!</text>
</g>
<!-- listen_for_tester_state&#45;&gt;contact_tester_state -->
<g id="edge14" class="edge"><title>listen_for_tester_state&#45;&gt;contact_tester_state</title>
<path style="fill:none;stroke:darkgreen;" d="M205,-622C208,-628 210,-634 212,-640 217,-664 218,-672 212,-696 211,-699 210,-702 208,-705"/>
<polygon style="fill:darkgreen;stroke:darkgreen;" points="204.863,-703.44 204,-714 211.26,-706.283 204.863,-703.44"/>
<text text-anchor="middle" x="248" y="-681.725" style="font-family:verdana;font-size:16.00;fill:darkgreen;">tester</text>
<text text-anchor="middle" x="248" y="-662.975" style="font-family:verdana;font-size:16.00;fill:darkgreen;">listening</text>
<text text-anchor="middle" x="248" y="-644.225" style="font-family:verdana;font-size:16.00;fill:darkgreen;">timeout!</text>
</g>
<!-- listen_for_tester_state&#45;&gt;listen_for_tester_state -->
<g id="edge10" class="edge"><title>listen_for_tester_state&#45;&gt;listen_for_tester_state</title>
<path style="fill:none;stroke:darkgreen;" d="M212,-594C222,-594 230,-589 230,-580 230,-574 227,-570 222,-568"/>
<polygon style="fill:darkgreen;stroke:darkgreen;" points="222.492,-564.529 212,-566 221.119,-571.393 222.492,-564.529"/>
<text text-anchor="middle" x="265" y="-584.35" style="font-family:verdana;font-size:16.00;fill:darkgreen;">tester</text>
<text text-anchor="middle" x="265" y="-565.6" style="font-family:verdana;font-size:16.00;fill:darkgreen;">unheard!</text>
</g>
<!-- send_tester_hash_state -->
<g id="node10" class="node"><title>send_tester_hash_state</title>
<polygon style="fill:lightblue;stroke:black;" points="211.754,-463.5 150.246,-463.5 150.246,-380.5 211.754,-380.5 211.754,-463.5"/>
<text text-anchor="middle" x="181" y="-445.1" style="font-family:verdana;font-size:16.00;fill:#000080;">send</text>
<text text-anchor="middle" x="181" y="-426.35" style="font-family:verdana;font-size:16.00;fill:#000080;">tester</text>
<text text-anchor="middle" x="181" y="-407.6" style="font-family:verdana;font-size:16.00;fill:#000080;">hash</text>
<text text-anchor="middle" x="181" y="-388.85" style="font-family:verdana;font-size:16.00;fill:#000080;">state</text>
</g>
<!-- listen_for_tester_state&#45;&gt;send_tester_hash_state -->
<g id="edge12" class="edge"><title>listen_for_tester_state&#45;&gt;send_tester_hash_state</title>
<path style="fill:none;stroke:darkgreen;" d="M181,-538C181,-518 181,-495 181,-474"/>
<polygon style="fill:darkgreen;stroke:darkgreen;" points="184.5,-474 181,-464 177.5,-474 184.5,-474"/>
<text text-anchor="middle" x="206" y="-505.35" style="font-family:verdana;font-size:16.00;fill:darkgreen;">tester</text>
<text text-anchor="middle" x="206" y="-486.6" style="font-family:verdana;font-size:16.00;fill:darkgreen;">heard!</text>
</g>
<!-- sent_tester_hash_state -->
<g id="node13" class="node"><title>sent_tester_hash_state</title>
<polygon style="fill:lightblue;stroke:black;" points="136.754,-267.5 75.246,-267.5 75.246,-184.5 136.754,-184.5 136.754,-267.5"/>
<text text-anchor="middle" x="106" y="-249.1" style="font-family:verdana;font-size:16.00;fill:#000080;">sent</text>
<text text-anchor="middle" x="106" y="-230.35" style="font-family:verdana;font-size:16.00;fill:#000080;">tester</text>
<text text-anchor="middle" x="106" y="-211.6" style="font-family:verdana;font-size:16.00;fill:#000080;">hash</text>
<text text-anchor="middle" x="106" y="-192.85" style="font-family:verdana;font-size:16.00;fill:#000080;">state</text>
</g>
<!-- send_tester_hash_state&#45;&gt;sent_tester_hash_state -->
<g id="edge16" class="edge"><title>send_tester_hash_state&#45;&gt;sent_tester_hash_state</title>
<path style="fill:none;stroke:darkgreen;" d="M150,-406C134,-395 116,-381 107,-362 95,-336 94,-305 96,-278"/>
<polygon style="fill:darkgreen;stroke:darkgreen;" points="99.4875,-278.299 97,-268 92.5222,-277.602 99.4875,-278.299"/>
<text text-anchor="middle" x="137" y="-347.1" style="font-family:verdana;font-size:16.00;fill:darkgreen;">sent</text>
<text text-anchor="middle" x="137" y="-328.35" style="font-family:verdana;font-size:16.00;fill:darkgreen;">hash</text>
<text text-anchor="middle" x="137" y="-309.6" style="font-family:verdana;font-size:16.00;fill:darkgreen;">to</text>
<text text-anchor="middle" x="137" y="-290.85" style="font-family:verdana;font-size:16.00;fill:darkgreen;">tester!</text>
</g>
<!-- warning_hash_nak_overcount_state -->
<g id="node15" class="node"><title>warning_hash_nak_overcount_state</title>
<polygon style="fill:lightblue;stroke:black;" points="456.751,-244 155.249,-244 155.249,-208 456.751,-208 456.751,-244"/>
<text text-anchor="middle" x="306" y="-220.975" style="font-family:verdana;font-size:16.00;fill:#000080;">warning_hash_nak_overcount_state</text>
</g>
<!-- send_tester_hash_state&#45;&gt;warning_hash_nak_overcount_state -->
<g id="edge18" class="edge"><title>send_tester_hash_state&#45;&gt;warning_hash_nak_overcount_state</title>
<path style="fill:none;stroke:darkgreen;" d="M212,-400C225,-390 240,-376 250,-362 274,-328 290,-283 298,-254"/>
<polygon style="fill:darkgreen;stroke:darkgreen;" points="301.479,-254.584 301,-244 294.774,-252.573 301.479,-254.584"/>
<text text-anchor="middle" x="328" y="-328.35" style="font-family:verdana;font-size:16.00;fill:darkgreen;">retry</text>
<text text-anchor="middle" x="328" y="-309.6" style="font-family:verdana;font-size:16.00;fill:darkgreen;">overcount!</text>
</g>
<!-- sent_tester_hash_state&#45;&gt;send_tester_hash_state -->
<g id="edge22" class="edge"><title>sent_tester_hash_state&#45;&gt;send_tester_hash_state</title>
<path style="fill:none;stroke:darkgreen;" d="M137,-257C147,-268 156,-279 159,-286 171,-312 177,-343 179,-370"/>
<polygon style="fill:darkgreen;stroke:darkgreen;" points="175.522,-370.398 180,-380 182.488,-369.701 175.522,-370.398"/>
<text text-anchor="middle" x="212" y="-337.725" style="font-family:verdana;font-size:16.00;fill:darkgreen;">received</text>
<text text-anchor="middle" x="212" y="-318.975" style="font-family:verdana;font-size:16.00;fill:darkgreen;">hash</text>
<text text-anchor="middle" x="212" y="-300.225" style="font-family:verdana;font-size:16.00;fill:darkgreen;">nak!</text>
</g>
<!-- verify_tester_hash_state -->
<g id="node17" class="node"><title>verify_tester_hash_state</title>
<polygon style="fill:lightblue;stroke:black;" points="212.124,-92 -0.124413,-92 -0.124413,-56 212.124,-56 212.124,-92"/>
<text text-anchor="middle" x="106" y="-68.975" style="font-family:verdana;font-size:16.00;fill:#000080;">verify_tester_hash_state</text>
</g>
<!-- sent_tester_hash_state&#45;&gt;verify_tester_hash_state -->
<g id="edge20" class="edge"><title>sent_tester_hash_state&#45;&gt;verify_tester_hash_state</title>
<path style="fill:none;stroke:darkgreen;" d="M106,-184C106,-158 106,-125 106,-102"/>
<polygon style="fill:darkgreen;stroke:darkgreen;" points="109.5,-102 106,-92 102.5,-102 109.5,-102"/>
<text text-anchor="middle" x="140" y="-151.725" style="font-family:verdana;font-size:16.00;fill:darkgreen;">received</text>
<text text-anchor="middle" x="140" y="-132.975" style="font-family:verdana;font-size:16.00;fill:darkgreen;">hash</text>
<text text-anchor="middle" x="140" y="-114.225" style="font-family:verdana;font-size:16.00;fill:darkgreen;">ack!</text>
</g>
</g>
</svg>
