<?xml version="1.0"?>
<!DOCTYPE svg PUBLIC "-//W3C//DTD SVG 1.0//EN" "http://www.w3.org/TR/2001/REC-SVG-20010904/DTD/svg10.dtd">
<!-- Generated by Graphviz version 2.16.1 (Thu Jan 17 17:16:42 GMT 2008)
     For user: martyn -->
<!-- Title: draw_state_machine Pages: 1 -->
<svg xmlns="http://www.w3.org/2000/svg" xmlns:svg="http://www.w3.org/2000/svg" width="224pt" height="748pt" viewBox="0.00 0.00 224.00 748.00" preserveAspectRatio="xMidYMid meet" zoomAndPan="magnify" version="1.0" contentScriptType="text/ecmascript" contentStyleType="text/css"><defs><linearGradient id="lightgrey" x1="0%" y1="0%" x2="100%" y2="100%"><stop offset="0%" style="stop-color:rgb(255,255,255);stop-opacity:1"/><stop offset="100%" style="stop-color:rgb(128,128,128);stop-opacity:1"/></linearGradient><linearGradient id="lightblue" x1="0%" y1="0%" x2="100%" y2="100%"><stop offset="0%" style="stop-color:rgb(255,255,255);stop-opacity:1"/><stop offset="100%" style="stop-color:rgb(128,128,255);stop-opacity:1"/></linearGradient><linearGradient id="none" x1="0%" y1="0%" x2="100%" y2="100%"><stop offset="0%" style="stop-color:rgb(255,255,255);stop-opacity:1"/><stop offset="100%" style="stop-color:rgb(255,255,255);stop-opacity:1"/></linearGradient></defs>
<g id="graph0" class="graph" transform="scale(1 1) rotate(0) translate(4 744)"><polygon style="fill:white;stroke:white;" points="-4,4 -4,-744 220,-744 220,4 -4,4"/><title content="structured text">draw_state_machine</title><g id="node1" class="node"><title content="structured text">init_state</title>
<ellipse style="fill: black; stroke: none; fill-opacity:0.1" cx="63" cy="-701" rx="38.9222" ry="38.9222" transform="translate(2.5,2.5)"/><ellipse style="fill:url(#lightblue);stroke:darkgray;" cx="63" cy="-701" rx="38.9222" ry="38.9222"/>
<text text-anchor="middle" x="63" y="-705.35" style="font-family:verdana;font-size:16.00;fill:#000080;">init</text>
<text text-anchor="middle" x="63" y="-686.6" style="font-family:verdana;font-size:16.00;fill:#000080;">state</text>
</g><g id="node3" class="node"><title content="structured text">listen_for_dev_state</title>
<ellipse style="fill: black; stroke: none; fill-opacity:0.1" cx="63" cy="-492" rx="58.1882" ry="58.1882" transform="translate(2.5,2.5)"/><ellipse style="fill:url(#lightblue);stroke:darkgray;" cx="63" cy="-492" rx="58.1882" ry="58.1882"/>
<text text-anchor="middle" x="63" y="-515.1" style="font-family:verdana;font-size:16.00;fill:#000080;">listen</text>
<text text-anchor="middle" x="63" y="-496.35" style="font-family:verdana;font-size:16.00;fill:#000080;">for</text>
<text text-anchor="middle" x="63" y="-477.6" style="font-family:verdana;font-size:16.00;fill:#000080;">dev</text>
<text text-anchor="middle" x="63" y="-458.85" style="font-family:verdana;font-size:16.00;fill:#000080;">state</text>
</g><g id="edge2" class="edge"><title content="structured text">init_state-&gt;listen_for_dev_state</title>
<path style="fill:none;stroke:green;" d="M34,-675C25,-666 17,-656 12,-644 0,-612 3,-600 12,-568 14,-560 18,-553 22,-546"/><path style="fill: none; stroke: black; stroke-opacity:0.1" d="M34,-675C25,-666 17,-656 12,-644 0,-612 3,-600 12,-568 14,-560 18,-553 22,-546" transform="translate(1.2,1.2)"/>
<polygon style="fill: black; stroke: none; fill-opacity:0.1" points="25.2031,-547.441 27,-537 19.084,-544.042 25.2031,-547.441" transform="translate(2.5,2.5)"/><polygon style="fill:url(#green);stroke:darkgray;" points="25.2031,-547.441 27,-537 19.084,-544.042 25.2031,-547.441"/>
<text text-anchor="middle" x="56" y="-600.975" style="font-family:verdana;font-size:16.00;fill:darkgreen;">initialised!</text>
</g><g id="edge8" class="edge"><title content="structured text">listen_for_dev_state-&gt;init_state</title>
<path style="fill:none;stroke:green;" d="M87,-545C89,-553 92,-560 93,-568 99,-601 101,-611 93,-644 92,-649 90,-654 88,-659"/><path style="fill: none; stroke: black; stroke-opacity:0.1" d="M87,-545C89,-553 92,-560 93,-568 99,-601 101,-611 93,-644 92,-649 90,-654 88,-659" transform="translate(1.2,1.2)"/>
<polygon style="fill: black; stroke: none; fill-opacity:0.1" points="84.8631,-657.44 84,-668 91.2598,-660.283 84.8631,-657.44" transform="translate(2.5,2.5)"/><polygon style="fill:url(#green);stroke:darkgray;" points="84.8631,-657.44 84,-668 91.2598,-660.283 84.8631,-657.44"/>
<text text-anchor="middle" x="131" y="-629.1" style="font-family:verdana;font-size:16.00;fill:darkgreen;">listen</text>
<text text-anchor="middle" x="131" y="-610.35" style="font-family:verdana;font-size:16.00;fill:darkgreen;">for</text>
<text text-anchor="middle" x="131" y="-591.6" style="font-family:verdana;font-size:16.00;fill:darkgreen;">dev</text>
<text text-anchor="middle" x="131" y="-572.85" style="font-family:verdana;font-size:16.00;fill:darkgreen;">timeout!</text>
</g><g id="edge4" class="edge"><title content="structured text">listen_for_dev_state-&gt;listen_for_dev_state</title>
<path style="fill:none;stroke:green;" d="M118,-511C130,-509 139,-503 139,-492 139,-484 135,-479 128,-476"/><path style="fill: none; stroke: black; stroke-opacity:0.1" d="M118,-511C130,-509 139,-503 139,-492 139,-484 135,-479 128,-476" transform="translate(1.2,1.2)"/>
<polygon style="fill: black; stroke: none; fill-opacity:0.1" points="128.584,-472.521 118,-473 126.573,-479.226 128.584,-472.521" transform="translate(2.5,2.5)"/><polygon style="fill:url(#green);stroke:darkgray;" points="128.584,-472.521 118,-473 126.573,-479.226 128.584,-472.521"/>
<text text-anchor="middle" x="174" y="-496.35" style="font-family:verdana;font-size:16.00;fill:darkgreen;">dev</text>
<text text-anchor="middle" x="174" y="-477.6" style="font-family:verdana;font-size:16.00;fill:darkgreen;">unheard!</text>
</g><g id="node6" class="node"><title content="structured text">contact_dev_state</title>
<ellipse style="fill: black; stroke: none; fill-opacity:0.1" cx="63" cy="-290" rx="52.1491" ry="52.1491" transform="translate(2.5,2.5)"/><ellipse style="fill:url(#lightblue);stroke:darkgray;" cx="63" cy="-290" rx="52.1491" ry="52.1491"/>
<text text-anchor="middle" x="63" y="-303.725" style="font-family:verdana;font-size:16.00;fill:#000080;">contact</text>
<text text-anchor="middle" x="63" y="-284.975" style="font-family:verdana;font-size:16.00;fill:#000080;">dev</text>
<text text-anchor="middle" x="63" y="-266.225" style="font-family:verdana;font-size:16.00;fill:#000080;">state</text>
</g><g id="edge6" class="edge"><title content="structured text">listen_for_dev_state-&gt;contact_dev_state</title>
<path style="fill:none;stroke:green;" d="M35,-441C32,-433 29,-424 27,-416 22,-391 22,-384 27,-360 28,-355 30,-349 32,-344"/><path style="fill: none; stroke: black; stroke-opacity:0.1" d="M35,-441C32,-433 29,-424 27,-416 22,-391 22,-384 27,-360 28,-355 30,-349 32,-344" transform="translate(1.2,1.2)"/>
<polygon style="fill: black; stroke: none; fill-opacity:0.1" points="35.1369,-345.56 36,-335 28.7402,-342.717 35.1369,-345.56" transform="translate(2.5,2.5)"/><polygon style="fill:url(#green);stroke:darkgray;" points="35.1369,-345.56 36,-335 28.7402,-342.717 35.1369,-345.56"/>
<text text-anchor="middle" x="56" y="-392.35" style="font-family:verdana;font-size:16.00;fill:darkgreen;">dev</text>
<text text-anchor="middle" x="56" y="-373.6" style="font-family:verdana;font-size:16.00;fill:darkgreen;">heard!</text>
</g><g id="edge14" class="edge"><title content="structured text">contact_dev_state-&gt;listen_for_dev_state</title>
<path style="fill:none;stroke:green;" d="M75,-341C76,-347 77,-354 78,-360 80,-384 80,-391 78,-416 78,-419 77,-422 77,-425"/><path style="fill: none; stroke: black; stroke-opacity:0.1" d="M75,-341C76,-347 77,-354 78,-360 80,-384 80,-391 78,-416 78,-419 77,-422 77,-425" transform="translate(1.2,1.2)"/>
<polygon style="fill: black; stroke: none; fill-opacity:0.1" points="73.5292,-424.508 75,-435 80.3933,-425.881 73.5292,-424.508" transform="translate(2.5,2.5)"/><polygon style="fill:url(#green);stroke:darkgray;" points="73.5292,-424.508 75,-435 80.3933,-425.881 73.5292,-424.508"/>
<text text-anchor="middle" x="112" y="-401.725" style="font-family:verdana;font-size:16.00;fill:darkgreen;">dev</text>
<text text-anchor="middle" x="112" y="-382.975" style="font-family:verdana;font-size:16.00;fill:darkgreen;">contact</text>
<text text-anchor="middle" x="112" y="-364.225" style="font-family:verdana;font-size:16.00;fill:darkgreen;">timeout!</text>
</g><g id="edge10" class="edge"><title content="structured text">contact_dev_state-&gt;contact_dev_state</title>
<path style="fill:none;stroke:green;" d="M113,-306C124,-305 133,-299 133,-290 133,-284 129,-279 123,-277"/><path style="fill: none; stroke: black; stroke-opacity:0.1" d="M113,-306C124,-305 133,-299 133,-290 133,-284 129,-279 123,-277" transform="translate(1.2,1.2)"/>
<polygon style="fill: black; stroke: none; fill-opacity:0.1" points="123.584,-273.521 113,-274 121.573,-280.226 123.584,-273.521" transform="translate(2.5,2.5)"/><polygon style="fill:url(#green);stroke:darkgray;" points="123.584,-273.521 113,-274 121.573,-280.226 123.584,-273.521"/>
<text text-anchor="middle" x="174" y="-303.725" style="font-family:verdana;font-size:16.00;fill:darkgreen;">dev</text>
<text text-anchor="middle" x="174" y="-284.975" style="font-family:verdana;font-size:16.00;fill:darkgreen;">not</text>
<text text-anchor="middle" x="174" y="-266.225" style="font-family:verdana;font-size:16.00;fill:darkgreen;">contacted!</text>
</g><g id="node10" class="node"><title content="structured text">process_tests_state</title>
<ellipse style="fill: black; stroke: none; fill-opacity:0.1" cx="63" cy="-110" rx="53.7726" ry="53.7726" transform="translate(2.5,2.5)"/><ellipse style="fill:url(#lightblue);stroke:darkgray;" cx="63" cy="-110" rx="53.7726" ry="53.7726"/>
<text text-anchor="middle" x="63" y="-123.725" style="font-family:verdana;font-size:16.00;fill:#000080;">process</text>
<text text-anchor="middle" x="63" y="-104.975" style="font-family:verdana;font-size:16.00;fill:#000080;">tests</text>
<text text-anchor="middle" x="63" y="-86.225" style="font-family:verdana;font-size:16.00;fill:#000080;">state</text>
</g><g id="edge12" class="edge"><title content="structured text">contact_dev_state-&gt;process_tests_state</title>
<path style="fill:none;stroke:green;" d="M63,-238C63,-218 63,-196 63,-174"/><path style="fill: none; stroke: black; stroke-opacity:0.1" d="M63,-238C63,-218 63,-196 63,-174" transform="translate(1.2,1.2)"/>
<polygon style="fill: black; stroke: none; fill-opacity:0.1" points="66.5001,-174 63,-164 59.5001,-174 66.5001,-174" transform="translate(2.5,2.5)"/><polygon style="fill:url(#green);stroke:darkgray;" points="66.5001,-174 63,-164 59.5001,-174 66.5001,-174"/>
<text text-anchor="middle" x="104" y="-205.35" style="font-family:verdana;font-size:16.00;fill:darkgreen;">dev</text>
<text text-anchor="middle" x="104" y="-186.6" style="font-family:verdana;font-size:16.00;fill:darkgreen;">contacted!</text>
</g><g id="edge16" class="edge"><title content="structured text">process_tests_state-&gt;process_tests_state</title>
<path style="fill:none;stroke:green;" d="M115,-126C126,-125 135,-119 135,-110 135,-104 131,-99 125,-97"/><path style="fill: none; stroke: black; stroke-opacity:0.1" d="M115,-126C126,-125 135,-119 135,-110 135,-104 131,-99 125,-97" transform="translate(1.2,1.2)"/>
<polygon style="fill: black; stroke: none; fill-opacity:0.1" points="125.584,-93.5212 115,-94 123.573,-100.226 125.584,-93.5212" transform="translate(2.5,2.5)"/><polygon style="fill:url(#green);stroke:darkgray;" points="125.584,-93.5212 115,-94 123.573,-100.226 125.584,-93.5212"/>
<text text-anchor="middle" x="174" y="-104.975" style="font-family:verdana;font-size:16.00;fill:darkgreen;">PENDING!</text>
</g></g>
</svg>
