<?xml version="1.0"?>
<!DOCTYPE svg PUBLIC "-//W3C//DTD SVG 1.0//EN" "http://www.w3.org/TR/2001/REC-SVG-20010904/DTD/svg10.dtd">
<!-- Generated by Graphviz version 2.16.1 (Thu Jan 17 17:16:42 GMT 2008)
     For user: martyn -->
<!-- Title: draw_state_machine Pages: 1 -->
<svg xmlns="http://www.w3.org/2000/svg" xmlns:svg="http://www.w3.org/2000/svg" width="1731pt" height="248pt" viewBox="0.00 0.00 1731.00 248.00" preserveAspectRatio="xMidYMid meet" zoomAndPan="magnify" version="1.0" contentScriptType="text/ecmascript" contentStyleType="text/css"><defs><linearGradient id="lightgrey" x1="0%" y1="0%" x2="100%" y2="100%"><stop offset="0%" style="stop-color:rgb(255,255,255);stop-opacity:1"/><stop offset="100%" style="stop-color:rgb(128,128,128);stop-opacity:1"/></linearGradient><linearGradient id="lightblue" x1="0%" y1="0%" x2="100%" y2="100%"><stop offset="0%" style="stop-color:rgb(255,255,255);stop-opacity:1"/><stop offset="100%" style="stop-color:rgb(128,128,255);stop-opacity:1"/></linearGradient><linearGradient id="none" x1="0%" y1="0%" x2="100%" y2="100%"><stop offset="0%" style="stop-color:rgb(255,255,255);stop-opacity:1"/><stop offset="100%" style="stop-color:rgb(255,255,255);stop-opacity:1"/></linearGradient></defs>
<g id="graph0" class="graph" transform="scale(1 1) rotate(0) translate(4 244)"><polygon style="fill:white;stroke:white;" points="-4,4 -4,-244 1727,-244 1727,4 -4,4"/><title content="structured text">draw_state_machine</title><g id="node1" class="node"><title content="structured text">idle_state</title>
<polygon style="fill: black; stroke: none; fill-opacity:0.1" points="879.875,-239.75 824.125,-239.75 824.125,-194.25 879.875,-194.25 879.875,-239.75" transform="translate(2.5,2.5)"/><polygon style="fill:url(#lightblue);stroke:darkgray;" points="879.875,-239.75 824.125,-239.75 824.125,-194.25 879.875,-194.25 879.875,-239.75"/>
<text text-anchor="middle" x="852" y="-221.35" style="font-family:verdana;font-size:16.00;fill:#000080;">idle</text>
<text text-anchor="middle" x="852" y="-202.6" style="font-family:verdana;font-size:16.00;fill:#000080;">state</text>
</g><g id="edge2" class="edge"><title content="structured text">idle_state-&gt;idle_state</title>
<path style="fill:none;stroke:green;" d="M880,-228C890,-228 898,-225 898,-217 898,-212 895,-209 890,-207"/><path style="fill: none; stroke: black; stroke-opacity:0.1" d="M880,-228C890,-228 898,-225 898,-217 898,-212 895,-209 890,-207" transform="translate(1.2,1.2)"/>
<polygon style="fill: black; stroke: none; fill-opacity:0.1" points="890.299,-203.512 880,-206 889.602,-210.478 890.299,-203.512" transform="translate(2.5,2.5)"/><polygon style="fill:url(#green);stroke:darkgray;" points="890.299,-203.512 880,-206 889.602,-210.478 890.299,-203.512"/>
<text text-anchor="middle" x="925" y="-221.35" style="font-family:verdana;font-size:16.00;fill:darkgreen;">no</text>
<text text-anchor="middle" x="925" y="-202.6" style="font-family:verdana;font-size:16.00;fill:darkgreen;">action!</text>
</g><g id="node4" class="node"><title content="structured text">sending_file_state</title>
<polygon style="fill: black; stroke: none; fill-opacity:0.1" points="156.75,-120.125 79.25,-120.125 79.25,-55.875 156.75,-55.875 156.75,-120.125" transform="translate(2.5,2.5)"/><polygon style="fill:url(#lightblue);stroke:darkgray;" points="156.75,-120.125 79.25,-120.125 79.25,-55.875 156.75,-55.875 156.75,-120.125"/>
<text text-anchor="middle" x="118" y="-101.725" style="font-family:verdana;font-size:16.00;fill:#000080;">sending</text>
<text text-anchor="middle" x="118" y="-82.975" style="font-family:verdana;font-size:16.00;fill:#000080;">file</text>
<text text-anchor="middle" x="118" y="-64.225" style="font-family:verdana;font-size:16.00;fill:#000080;">state</text>
</g><g id="edge4" class="edge"><title content="structured text">idle_state-&gt;sending_file_state</title>
<path style="fill:none;stroke:green;" d="M824,-217C680,-215 40,-205 11,-176 0,-163 2,-152 11,-138 24,-117 48,-105 69,-98"/><path style="fill: none; stroke: black; stroke-opacity:0.1" d="M824,-217C680,-215 40,-205 11,-176 0,-163 2,-152 11,-138 24,-117 48,-105 69,-98" transform="translate(1.2,1.2)"/>
<polygon style="fill: black; stroke: none; fill-opacity:0.1" points="70.4275,-101.226 79,-95 68.416,-94.5212 70.4275,-101.226" transform="translate(2.5,2.5)"/><polygon style="fill:url(#green);stroke:darkgray;" points="70.4275,-101.226 79,-95 68.416,-94.5212 70.4275,-101.226"/>
<text text-anchor="middle" x="34" y="-161.35" style="font-family:verdana;font-size:16.00;fill:darkgreen;">send</text>
<text text-anchor="middle" x="34" y="-142.6" style="font-family:verdana;font-size:16.00;fill:darkgreen;">file!</text>
</g><g id="node6" class="node"><title content="structured text">deleting_file_state</title>
<polygon style="fill: black; stroke: none; fill-opacity:0.1" points="510.875,-120.125 431.125,-120.125 431.125,-55.875 510.875,-55.875 510.875,-120.125" transform="translate(2.5,2.5)"/><polygon style="fill:url(#lightblue);stroke:darkgray;" points="510.875,-120.125 431.125,-120.125 431.125,-55.875 510.875,-55.875 510.875,-120.125"/>
<text text-anchor="middle" x="471" y="-101.725" style="font-family:verdana;font-size:16.00;fill:#000080;">deleting</text>
<text text-anchor="middle" x="471" y="-82.975" style="font-family:verdana;font-size:16.00;fill:#000080;">file</text>
<text text-anchor="middle" x="471" y="-64.225" style="font-family:verdana;font-size:16.00;fill:#000080;">state</text>
</g><g id="edge6" class="edge"><title content="structured text">idle_state-&gt;deleting_file_state</title>
<path style="fill:none;stroke:green;" d="M824,-217C723,-216 384,-210 352,-176 341,-163 343,-152 352,-138 368,-115 396,-102 421,-95"/><path style="fill: none; stroke: black; stroke-opacity:0.1" d="M824,-217C723,-216 384,-210 352,-176 341,-163 343,-152 352,-138 368,-115 396,-102 421,-95" transform="translate(1.2,1.2)"/>
<polygon style="fill: black; stroke: none; fill-opacity:0.1" points="421.881,-98.3933 431,-93 420.508,-91.5292 421.881,-98.3933" transform="translate(2.5,2.5)"/><polygon style="fill:url(#green);stroke:darkgray;" points="421.881,-98.3933 431,-93 420.508,-91.5292 421.881,-98.3933"/>
<text text-anchor="middle" x="381" y="-161.35" style="font-family:verdana;font-size:16.00;fill:darkgreen;">delete</text>
<text text-anchor="middle" x="381" y="-142.6" style="font-family:verdana;font-size:16.00;fill:darkgreen;">file!</text>
</g><g id="node8" class="node"><title content="structured text">sending_structure_state</title>
<polygon style="fill: black; stroke: none; fill-opacity:0.1" points="895.124,-120.125 808.876,-120.125 808.876,-55.875 895.124,-55.875 895.124,-120.125" transform="translate(2.5,2.5)"/><polygon style="fill:url(#lightblue);stroke:darkgray;" points="895.124,-120.125 808.876,-120.125 808.876,-55.875 895.124,-55.875 895.124,-120.125"/>
<text text-anchor="middle" x="852" y="-101.725" style="font-family:verdana;font-size:16.00;fill:#000080;">sending</text>
<text text-anchor="middle" x="852" y="-82.975" style="font-family:verdana;font-size:16.00;fill:#000080;">structure</text>
<text text-anchor="middle" x="852" y="-64.225" style="font-family:verdana;font-size:16.00;fill:#000080;">state</text>
</g><g id="edge8" class="edge"><title content="structured text">idle_state-&gt;sending_structure_state</title>
<path style="fill:none;stroke:green;" d="M824,-213C786,-207 720,-195 705,-176 695,-162 696,-151 705,-138 717,-121 762,-107 799,-99"/><path style="fill: none; stroke: black; stroke-opacity:0.1" d="M824,-213C786,-207 720,-195 705,-176 695,-162 696,-151 705,-138 717,-121 762,-107 799,-99" transform="translate(1.2,1.2)"/>
<polygon style="fill: black; stroke: none; fill-opacity:0.1" points="799.881,-102.393 809,-97 798.508,-95.5292 799.881,-102.393" transform="translate(2.5,2.5)"/><polygon style="fill:url(#green);stroke:darkgray;" points="799.881,-102.393 809,-97 798.508,-95.5292 799.881,-102.393"/>
<text text-anchor="middle" x="747" y="-161.35" style="font-family:verdana;font-size:16.00;fill:darkgreen;">send</text>
<text text-anchor="middle" x="747" y="-142.6" style="font-family:verdana;font-size:16.00;fill:darkgreen;">structure!</text>
</g><g id="node10" class="node"><title content="structured text">sending_hash_state</title>
<polygon style="fill: black; stroke: none; fill-opacity:0.1" points="1237.75,-120.125 1160.25,-120.125 1160.25,-55.875 1237.75,-55.875 1237.75,-120.125" transform="translate(2.5,2.5)"/><polygon style="fill:url(#lightblue);stroke:darkgray;" points="1237.75,-120.125 1160.25,-120.125 1160.25,-55.875 1237.75,-55.875 1237.75,-120.125"/>
<text text-anchor="middle" x="1199" y="-101.725" style="font-family:verdana;font-size:16.00;fill:#000080;">sending</text>
<text text-anchor="middle" x="1199" y="-82.975" style="font-family:verdana;font-size:16.00;fill:#000080;">hash</text>
<text text-anchor="middle" x="1199" y="-64.225" style="font-family:verdana;font-size:16.00;fill:#000080;">state</text>
</g><g id="edge10" class="edge"><title content="structured text">idle_state-&gt;sending_hash_state</title>
<path style="fill:none;stroke:green;" d="M880,-214C917,-210 982,-199 1034,-176 1060,-164 1061,-152 1086,-138 1107,-126 1130,-115 1151,-107"/><path style="fill: none; stroke: black; stroke-opacity:0.1" d="M880,-214C917,-210 982,-199 1034,-176 1060,-164 1061,-152 1086,-138 1107,-126 1130,-115 1151,-107" transform="translate(1.2,1.2)"/>
<polygon style="fill: black; stroke: none; fill-opacity:0.1" points="1152.28,-110.26 1160,-103 1149.44,-103.863 1152.28,-110.26" transform="translate(2.5,2.5)"/><polygon style="fill:url(#green);stroke:darkgray;" points="1152.28,-110.26 1160,-103 1149.44,-103.863 1152.28,-110.26"/>
<text text-anchor="middle" x="1107" y="-161.35" style="font-family:verdana;font-size:16.00;fill:darkgreen;">send</text>
<text text-anchor="middle" x="1107" y="-142.6" style="font-family:verdana;font-size:16.00;fill:darkgreen;">hash!</text>
</g><g id="node12" class="node"><title content="structured text">sending_tick_state</title>
<polygon style="fill: black; stroke: none; fill-opacity:0.1" points="1578.75,-120.125 1501.25,-120.125 1501.25,-55.875 1578.75,-55.875 1578.75,-120.125" transform="translate(2.5,2.5)"/><polygon style="fill:url(#lightblue);stroke:darkgray;" points="1578.75,-120.125 1501.25,-120.125 1501.25,-55.875 1578.75,-55.875 1578.75,-120.125"/>
<text text-anchor="middle" x="1540" y="-101.725" style="font-family:verdana;font-size:16.00;fill:#000080;">sending</text>
<text text-anchor="middle" x="1540" y="-82.975" style="font-family:verdana;font-size:16.00;fill:#000080;">tick</text>
<text text-anchor="middle" x="1540" y="-64.225" style="font-family:verdana;font-size:16.00;fill:#000080;">state</text>
</g><g id="edge12" class="edge"><title content="structured text">idle_state-&gt;sending_tick_state</title>
<path style="fill:none;stroke:green;" d="M880,-216C983,-211 1338,-194 1386,-176 1410,-166 1410,-152 1433,-138 1451,-126 1473,-116 1492,-107"/><path style="fill: none; stroke: black; stroke-opacity:0.1" d="M880,-216C983,-211 1338,-194 1386,-176 1410,-166 1410,-152 1433,-138 1451,-126 1473,-116 1492,-107" transform="translate(1.2,1.2)"/>
<polygon style="fill: black; stroke: none; fill-opacity:0.1" points="1493.28,-110.26 1501,-103 1490.44,-103.863 1493.28,-110.26" transform="translate(2.5,2.5)"/><polygon style="fill:url(#green);stroke:darkgray;" points="1493.28,-110.26 1501,-103 1490.44,-103.863 1493.28,-110.26"/>
<text text-anchor="middle" x="1451" y="-161.35" style="font-family:verdana;font-size:16.00;fill:darkgreen;">send</text>
<text text-anchor="middle" x="1451" y="-142.6" style="font-family:verdana;font-size:16.00;fill:darkgreen;">tick!</text>
</g><g id="edge16" class="edge"><title content="structured text">sending_file_state-&gt;idle_state</title>
<path style="fill:none;stroke:green;" d="M83,-120C68,-138 56,-160 71,-176 97,-202 660,-213 814,-217"/><path style="fill: none; stroke: black; stroke-opacity:0.1" d="M83,-120C68,-138 56,-160 71,-176 97,-202 660,-213 814,-217" transform="translate(1.2,1.2)"/>
<polygon style="fill: black; stroke: none; fill-opacity:0.1" points="814,-220.5 824,-217 814,-213.5 814,-220.5" transform="translate(2.5,2.5)"/><polygon style="fill:url(#green);stroke:darkgray;" points="814,-220.5 824,-217 814,-213.5 814,-220.5"/>
<text text-anchor="middle" x="112" y="-161.35" style="font-family:verdana;font-size:16.00;fill:darkgreen;">ack</text>
<text text-anchor="middle" x="112" y="-142.6" style="font-family:verdana;font-size:16.00;fill:darkgreen;">received!</text>
</g><g id="edge18" class="edge"><title content="structured text">sending_file_state-&gt;idle_state</title>
<path style="fill:none;stroke:green;" d="M135,-120C148,-145 165,-174 167,-176 222,-210 677,-216 814,-217"/><path style="fill: none; stroke: black; stroke-opacity:0.1" d="M135,-120C148,-145 165,-174 167,-176 222,-210 677,-216 814,-217" transform="translate(1.2,1.2)"/>
<polygon style="fill: black; stroke: none; fill-opacity:0.1" points="814,-220.5 824,-217 814,-213.5 814,-220.5" transform="translate(2.5,2.5)"/><polygon style="fill:url(#green);stroke:darkgray;" points="814,-220.5 824,-217 814,-213.5 814,-220.5"/>
<text text-anchor="middle" x="210" y="-161.35" style="font-family:verdana;font-size:16.00;fill:darkgreen;">nak</text>
<text text-anchor="middle" x="210" y="-142.6" style="font-family:verdana;font-size:16.00;fill:darkgreen;">received!</text>
</g><g id="edge20" class="edge"><title content="structured text">sending_file_state-&gt;idle_state</title>
<path style="fill:none;stroke:green;" d="M157,-99C182,-107 215,-120 240,-138 259,-151 255,-166 275,-176 324,-198 692,-212 814,-216"/><path style="fill: none; stroke: black; stroke-opacity:0.1" d="M157,-99C182,-107 215,-120 240,-138 259,-151 255,-166 275,-176 324,-198 692,-212 814,-216" transform="translate(1.2,1.2)"/>
<polygon style="fill: black; stroke: none; fill-opacity:0.1" points="814,-219.5 824,-216 814,-212.5 814,-219.5" transform="translate(2.5,2.5)"/><polygon style="fill:url(#green);stroke:darkgray;" points="814,-219.5 824,-216 814,-212.5 814,-219.5"/>
<text text-anchor="middle" x="315" y="-161.35" style="font-family:verdana;font-size:16.00;fill:darkgreen;">rx</text>
<text text-anchor="middle" x="315" y="-142.6" style="font-family:verdana;font-size:16.00;fill:darkgreen;">timeout!</text>
</g><g id="edge14" class="edge"><title content="structured text">sending_file_state-&gt;sending_file_state</title>
<path style="fill:none;stroke:green;" d="M157,-101C167,-100 175,-96 175,-88 175,-83 172,-80 167,-77"/><path style="fill: none; stroke: black; stroke-opacity:0.1" d="M157,-101C167,-100 175,-96 175,-88 175,-83 172,-80 167,-77" transform="translate(1.2,1.2)"/>
<polygon style="fill: black; stroke: none; fill-opacity:0.1" points="167.492,-73.5292 157,-75 166.119,-80.3933 167.492,-73.5292" transform="translate(2.5,2.5)"/><polygon style="fill:url(#green);stroke:darkgray;" points="167.492,-73.5292 157,-75 166.119,-80.3933 167.492,-73.5292"/>
<text text-anchor="middle" x="202" y="-92.35" style="font-family:verdana;font-size:16.00;fill:darkgreen;">no</text>
<text text-anchor="middle" x="202" y="-73.6" style="font-family:verdana;font-size:16.00;fill:darkgreen;">action!</text>
</g><g id="edge24" class="edge"><title content="structured text">deleting_file_state-&gt;idle_state</title>
<path style="fill:none;stroke:green;" d="M436,-120C421,-138 410,-160 424,-176 451,-204 714,-213 814,-216"/><path style="fill: none; stroke: black; stroke-opacity:0.1" d="M436,-120C421,-138 410,-160 424,-176 451,-204 714,-213 814,-216" transform="translate(1.2,1.2)"/>
<polygon style="fill: black; stroke: none; fill-opacity:0.1" points="814,-219.5 824,-216 814,-212.5 814,-219.5" transform="translate(2.5,2.5)"/><polygon style="fill:url(#green);stroke:darkgray;" points="814,-219.5 824,-216 814,-212.5 814,-219.5"/>
<text text-anchor="middle" x="464" y="-161.35" style="font-family:verdana;font-size:16.00;fill:darkgreen;">ack</text>
<text text-anchor="middle" x="464" y="-142.6" style="font-family:verdana;font-size:16.00;fill:darkgreen;">received!</text>
</g><g id="edge26" class="edge"><title content="structured text">deleting_file_state-&gt;idle_state</title>
<path style="fill:none;stroke:green;" d="M488,-120C501,-144 518,-174 520,-176 544,-191 732,-208 814,-214"/><path style="fill: none; stroke: black; stroke-opacity:0.1" d="M488,-120C501,-144 518,-174 520,-176 544,-191 732,-208 814,-214" transform="translate(1.2,1.2)"/>
<polygon style="fill: black; stroke: none; fill-opacity:0.1" points="813.701,-217.488 824,-215 814.398,-210.522 813.701,-217.488" transform="translate(2.5,2.5)"/><polygon style="fill:url(#green);stroke:darkgray;" points="813.701,-217.488 824,-215 814.398,-210.522 813.701,-217.488"/>
<text text-anchor="middle" x="564" y="-161.35" style="font-family:verdana;font-size:16.00;fill:darkgreen;">nak</text>
<text text-anchor="middle" x="564" y="-142.6" style="font-family:verdana;font-size:16.00;fill:darkgreen;">received!</text>
</g><g id="edge28" class="edge"><title content="structured text">deleting_file_state-&gt;idle_state</title>
<path style="fill:none;stroke:green;" d="M511,-99C536,-107 568,-120 593,-138 613,-151 609,-164 629,-176 661,-193 759,-206 814,-213"/><path style="fill: none; stroke: black; stroke-opacity:0.1" d="M511,-99C536,-107 568,-120 593,-138 613,-151 609,-164 629,-176 661,-193 759,-206 814,-213" transform="translate(1.2,1.2)"/>
<polygon style="fill: black; stroke: none; fill-opacity:0.1" points="813.701,-216.488 824,-214 814.398,-209.522 813.701,-216.488" transform="translate(2.5,2.5)"/><polygon style="fill:url(#green);stroke:darkgray;" points="813.701,-216.488 824,-214 814.398,-209.522 813.701,-216.488"/>
<text text-anchor="middle" x="671" y="-161.35" style="font-family:verdana;font-size:16.00;fill:darkgreen;">rx</text>
<text text-anchor="middle" x="671" y="-142.6" style="font-family:verdana;font-size:16.00;fill:darkgreen;">timeout!</text>
</g><g id="edge22" class="edge"><title content="structured text">deleting_file_state-&gt;deleting_file_state</title>
<path style="fill:none;stroke:green;" d="M511,-101C521,-100 529,-96 529,-88 529,-83 526,-80 521,-77"/><path style="fill: none; stroke: black; stroke-opacity:0.1" d="M511,-101C521,-100 529,-96 529,-88 529,-83 526,-80 521,-77" transform="translate(1.2,1.2)"/>
<polygon style="fill: black; stroke: none; fill-opacity:0.1" points="521.492,-73.5292 511,-75 520.119,-80.3933 521.492,-73.5292" transform="translate(2.5,2.5)"/><polygon style="fill:url(#green);stroke:darkgray;" points="521.492,-73.5292 511,-75 520.119,-80.3933 521.492,-73.5292"/>
<text text-anchor="middle" x="556" y="-92.35" style="font-family:verdana;font-size:16.00;fill:darkgreen;">no</text>
<text text-anchor="middle" x="556" y="-73.6" style="font-family:verdana;font-size:16.00;fill:darkgreen;">action!</text>
</g><g id="edge32" class="edge"><title content="structured text">sending_structure_state-&gt;idle_state</title>
<path style="fill:none;stroke:green;" d="M816,-120C811,-126 808,-132 805,-138 799,-153 799,-160 805,-176 808,-182 812,-187 817,-192"/><path style="fill: none; stroke: black; stroke-opacity:0.1" d="M816,-120C811,-126 808,-132 805,-138 799,-153 799,-160 805,-176 808,-182 812,-187 817,-192" transform="translate(1.2,1.2)"/>
<polygon style="fill: black; stroke: none; fill-opacity:0.1" points="814.454,-194.404 824,-199 819.404,-189.454 814.454,-194.404" transform="translate(2.5,2.5)"/><polygon style="fill:url(#green);stroke:darkgray;" points="814.454,-194.404 824,-199 819.404,-189.454 814.454,-194.404"/>
<text text-anchor="middle" x="845" y="-161.35" style="font-family:verdana;font-size:16.00;fill:darkgreen;">ack</text>
<text text-anchor="middle" x="845" y="-142.6" style="font-family:verdana;font-size:16.00;fill:darkgreen;">received!</text>
</g><g id="edge34" class="edge"><title content="structured text">sending_structure_state-&gt;idle_state</title>
<path style="fill:none;stroke:green;" d="M872,-120C874,-126 877,-132 878,-138 882,-154 882,-159 878,-176 877,-179 876,-182 874,-185"/><path style="fill: none; stroke: black; stroke-opacity:0.1" d="M872,-120C874,-126 877,-132 878,-138 882,-154 882,-159 878,-176 877,-179 876,-182 874,-185" transform="translate(1.2,1.2)"/>
<polygon style="fill: black; stroke: none; fill-opacity:0.1" points="870.797,-183.559 869,-194 876.916,-186.958 870.797,-183.559" transform="translate(2.5,2.5)"/><polygon style="fill:url(#green);stroke:darkgray;" points="870.797,-183.559 869,-194 876.916,-186.958 870.797,-183.559"/>
<text text-anchor="middle" x="917" y="-161.35" style="font-family:verdana;font-size:16.00;fill:darkgreen;">nak</text>
<text text-anchor="middle" x="917" y="-142.6" style="font-family:verdana;font-size:16.00;fill:darkgreen;">received!</text>
</g><g id="edge36" class="edge"><title content="structured text">sending_structure_state-&gt;idle_state</title>
<path style="fill:none;stroke:green;" d="M895,-97C918,-104 944,-116 958,-138 967,-152 967,-162 958,-176 949,-188 917,-199 890,-207"/><path style="fill: none; stroke: black; stroke-opacity:0.1" d="M895,-97C918,-104 944,-116 958,-138 967,-152 967,-162 958,-176 949,-188 917,-199 890,-207" transform="translate(1.2,1.2)"/>
<polygon style="fill: black; stroke: none; fill-opacity:0.1" points="888.573,-203.774 880,-210 890.584,-210.479 888.573,-203.774" transform="translate(2.5,2.5)"/><polygon style="fill:url(#green);stroke:darkgray;" points="888.573,-203.774 880,-210 890.584,-210.479 888.573,-203.774"/>
<text text-anchor="middle" x="997" y="-161.35" style="font-family:verdana;font-size:16.00;fill:darkgreen;">rx</text>
<text text-anchor="middle" x="997" y="-142.6" style="font-family:verdana;font-size:16.00;fill:darkgreen;">timeout!</text>
</g><g id="edge30" class="edge"><title content="structured text">sending_structure_state-&gt;sending_structure_state</title>
<path style="fill:none;stroke:green;" d="M895,-100C905,-99 913,-95 913,-88 913,-84 910,-80 905,-78"/><path style="fill: none; stroke: black; stroke-opacity:0.1" d="M895,-100C905,-99 913,-95 913,-88 913,-84 910,-80 905,-78" transform="translate(1.2,1.2)"/>
<polygon style="fill: black; stroke: none; fill-opacity:0.1" points="905.492,-74.5292 895,-76 904.119,-81.3933 905.492,-74.5292" transform="translate(2.5,2.5)"/><polygon style="fill:url(#green);stroke:darkgray;" points="905.492,-74.5292 895,-76 904.119,-81.3933 905.492,-74.5292"/>
<text text-anchor="middle" x="940" y="-92.35" style="font-family:verdana;font-size:16.00;fill:darkgreen;">no</text>
<text text-anchor="middle" x="940" y="-73.6" style="font-family:verdana;font-size:16.00;fill:darkgreen;">action!</text>
</g><g id="edge48" class="edge"><title content="structured text">sending_hash_state-&gt;idle_state</title>
<path style="fill:none;stroke:green;" d="M1166,-120C1161,-126 1156,-132 1152,-138 1140,-153 1145,-165 1129,-176 1090,-202 957,-212 890,-215"/><path style="fill: none; stroke: black; stroke-opacity:0.1" d="M1166,-120C1161,-126 1156,-132 1152,-138 1140,-153 1145,-165 1129,-176 1090,-202 957,-212 890,-215" transform="translate(1.2,1.2)"/>
<polygon style="fill: black; stroke: none; fill-opacity:0.1" points="889.602,-211.522 880,-216 890.299,-218.488 889.602,-211.522" transform="translate(2.5,2.5)"/><polygon style="fill:url(#green);stroke:darkgray;" points="889.602,-211.522 880,-216 890.299,-218.488 889.602,-211.522"/>
<text text-anchor="middle" x="1188" y="-161.35" style="font-family:verdana;font-size:16.00;fill:darkgreen;">ack</text>
<text text-anchor="middle" x="1188" y="-142.6" style="font-family:verdana;font-size:16.00;fill:darkgreen;">received!</text>
</g><g id="edge50" class="edge"><title content="structured text">sending_hash_state-&gt;idle_state</title>
<path style="fill:none;stroke:green;" d="M1222,-120C1232,-139 1239,-161 1225,-176 1203,-201 981,-212 890,-216"/><path style="fill: none; stroke: black; stroke-opacity:0.1" d="M1222,-120C1232,-139 1239,-161 1225,-176 1203,-201 981,-212 890,-216" transform="translate(1.2,1.2)"/>
<polygon style="fill: black; stroke: none; fill-opacity:0.1" points="890,-212.5 880,-216 890,-219.5 890,-212.5" transform="translate(2.5,2.5)"/><polygon style="fill:url(#green);stroke:darkgray;" points="890,-212.5 880,-216 890,-219.5 890,-212.5"/>
<text text-anchor="middle" x="1268" y="-161.35" style="font-family:verdana;font-size:16.00;fill:darkgreen;">nak</text>
<text text-anchor="middle" x="1268" y="-142.6" style="font-family:verdana;font-size:16.00;fill:darkgreen;">received!</text>
</g><g id="edge52" class="edge"><title content="structured text">sending_hash_state-&gt;idle_state</title>
<path style="fill:none;stroke:green;" d="M1238,-94C1263,-101 1293,-113 1309,-138 1318,-152 1320,-163 1309,-176 1281,-206 995,-214 890,-217"/><path style="fill: none; stroke: black; stroke-opacity:0.1" d="M1238,-94C1263,-101 1293,-113 1309,-138 1318,-152 1320,-163 1309,-176 1281,-206 995,-214 890,-217" transform="translate(1.2,1.2)"/>
<polygon style="fill: black; stroke: none; fill-opacity:0.1" points="890,-213.5 880,-217 890,-220.5 890,-213.5" transform="translate(2.5,2.5)"/><polygon style="fill:url(#green);stroke:darkgray;" points="890,-213.5 880,-217 890,-220.5 890,-213.5"/>
<text text-anchor="middle" x="1349" y="-161.35" style="font-family:verdana;font-size:16.00;fill:darkgreen;">rx</text>
<text text-anchor="middle" x="1349" y="-142.6" style="font-family:verdana;font-size:16.00;fill:darkgreen;">timeout!</text>
</g><g id="edge46" class="edge"><title content="structured text">sending_hash_state-&gt;sending_hash_state</title>
<path style="fill:none;stroke:green;" d="M1238,-101C1248,-100 1256,-96 1256,-88 1256,-83 1253,-80 1248,-77"/><path style="fill: none; stroke: black; stroke-opacity:0.1" d="M1238,-101C1248,-100 1256,-96 1256,-88 1256,-83 1253,-80 1248,-77" transform="translate(1.2,1.2)"/>
<polygon style="fill: black; stroke: none; fill-opacity:0.1" points="1248.49,-73.5292 1238,-75 1247.12,-80.3933 1248.49,-73.5292" transform="translate(2.5,2.5)"/><polygon style="fill:url(#green);stroke:darkgray;" points="1248.49,-73.5292 1238,-75 1247.12,-80.3933 1248.49,-73.5292"/>
<text text-anchor="middle" x="1283" y="-92.35" style="font-family:verdana;font-size:16.00;fill:darkgreen;">no</text>
<text text-anchor="middle" x="1283" y="-73.6" style="font-family:verdana;font-size:16.00;fill:darkgreen;">action!</text>
</g><g id="edge40" class="edge"><title content="structured text">sending_tick_state-&gt;idle_state</title>
<path style="fill:none;stroke:green;" d="M1507,-120C1502,-126 1497,-132 1493,-138 1481,-153 1486,-165 1470,-176 1420,-205 1018,-214 890,-217"/><path style="fill: none; stroke: black; stroke-opacity:0.1" d="M1507,-120C1502,-126 1497,-132 1493,-138 1481,-153 1486,-165 1470,-176 1420,-205 1018,-214 890,-217" transform="translate(1.2,1.2)"/>
<polygon style="fill: black; stroke: none; fill-opacity:0.1" points="890,-213.5 880,-217 890,-220.5 890,-213.5" transform="translate(2.5,2.5)"/><polygon style="fill:url(#green);stroke:darkgray;" points="890,-213.5 880,-217 890,-220.5 890,-213.5"/>
<text text-anchor="middle" x="1529" y="-161.35" style="font-family:verdana;font-size:16.00;fill:darkgreen;">ack</text>
<text text-anchor="middle" x="1529" y="-142.6" style="font-family:verdana;font-size:16.00;fill:darkgreen;">received!</text>
</g><g id="edge42" class="edge"><title content="structured text">sending_tick_state-&gt;idle_state</title>
<path style="fill:none;stroke:green;" d="M1563,-120C1573,-139 1580,-161 1566,-176 1542,-200 1036,-213 890,-216"/><path style="fill: none; stroke: black; stroke-opacity:0.1" d="M1563,-120C1573,-139 1580,-161 1566,-176 1542,-200 1036,-213 890,-216" transform="translate(1.2,1.2)"/>
<polygon style="fill: black; stroke: none; fill-opacity:0.1" points="890,-212.5 880,-216 890,-219.5 890,-212.5" transform="translate(2.5,2.5)"/><polygon style="fill:url(#green);stroke:darkgray;" points="890,-212.5 880,-216 890,-219.5 890,-212.5"/>
<text text-anchor="middle" x="1609" y="-161.35" style="font-family:verdana;font-size:16.00;fill:darkgreen;">nak</text>
<text text-anchor="middle" x="1609" y="-142.6" style="font-family:verdana;font-size:16.00;fill:darkgreen;">received!</text>
</g><g id="edge44" class="edge"><title content="structured text">sending_tick_state-&gt;idle_state</title>
<path style="fill:none;stroke:green;" d="M1579,-94C1604,-101 1634,-113 1650,-138 1659,-152 1661,-163 1650,-176 1624,-203 1046,-214 890,-217"/><path style="fill: none; stroke: black; stroke-opacity:0.1" d="M1579,-94C1604,-101 1634,-113 1650,-138 1659,-152 1661,-163 1650,-176 1624,-203 1046,-214 890,-217" transform="translate(1.2,1.2)"/>
<polygon style="fill: black; stroke: none; fill-opacity:0.1" points="890,-213.5 880,-217 890,-220.5 890,-213.5" transform="translate(2.5,2.5)"/><polygon style="fill:url(#green);stroke:darkgray;" points="890,-213.5 880,-217 890,-220.5 890,-213.5"/>
<text text-anchor="middle" x="1690" y="-161.35" style="font-family:verdana;font-size:16.00;fill:darkgreen;">rx</text>
<text text-anchor="middle" x="1690" y="-142.6" style="font-family:verdana;font-size:16.00;fill:darkgreen;">timeout!</text>
</g><g id="edge38" class="edge"><title content="structured text">sending_tick_state-&gt;sending_tick_state</title>
<path style="fill:none;stroke:green;" d="M1579,-101C1589,-100 1597,-96 1597,-88 1597,-83 1594,-80 1589,-77"/><path style="fill: none; stroke: black; stroke-opacity:0.1" d="M1579,-101C1589,-100 1597,-96 1597,-88 1597,-83 1594,-80 1589,-77" transform="translate(1.2,1.2)"/>
<polygon style="fill: black; stroke: none; fill-opacity:0.1" points="1589.49,-73.5292 1579,-75 1588.12,-80.3933 1589.49,-73.5292" transform="translate(2.5,2.5)"/><polygon style="fill:url(#green);stroke:darkgray;" points="1589.49,-73.5292 1579,-75 1588.12,-80.3933 1589.49,-73.5292"/>
<text text-anchor="middle" x="1624" y="-92.35" style="font-family:verdana;font-size:16.00;fill:darkgreen;">no</text>
<text text-anchor="middle" x="1624" y="-73.6" style="font-family:verdana;font-size:16.00;fill:darkgreen;">action!</text>
</g></g>
</svg>
